<?xml version="1.0" encoding="UTF-8" standalone="no"?>
<!-- Generator: Adobe Illustrator 14.0.0, SVG Export Plug-In . SVG Version: 6.00 Build 43363)  -->

<svg
   xmlns:dc="http://purl.org/dc/elements/1.1/"
   xmlns:cc="http://creativecommons.org/ns#"
   xmlns:rdf="http://www.w3.org/1999/02/22-rdf-syntax-ns#"
   xmlns:svg="http://www.w3.org/2000/svg"
   xmlns="http://www.w3.org/2000/svg"
   xmlns:xlink="http://www.w3.org/1999/xlink"
   xmlns:sodipodi="http://sodipodi.sourceforge.net/DTD/sodipodi-0.dtd"
   xmlns:inkscape="http://www.inkscape.org/namespaces/inkscape"
   version="1.1"
   id="Layer_1"
   x="0px"
   y="0px"
   width="960"
   height="540"
   viewBox="0 0 959.99995 540"
   enable-background="new 0 0 285.691 104.121"
   xml:space="preserve"
   inkscape:version="0.48.4 r9939"
   sodipodi:docname="logo_fullcolour.svg"
   inkscape:export-filename="/home/adfries/Documents/marketing/Logos/vi_Full_colour2_slide_hd.png"
   inkscape:export-xdpi="180"
   inkscape:export-ydpi="180"><metadata
     id="metadata75"><rdf:RDF><cc:Work
         rdf:about=""><dc:format>image/svg+xml</dc:format><dc:type
           rdf:resource="http://purl.org/dc/dcmitype/StillImage" /><dc:title></dc:title></cc:Work></rdf:RDF></metadata><defs
     id="defs73"><clipPath
       clipPathUnits="userSpaceOnUse"
       id="clipPath4029"><path
         style="fill:none;stroke:#000000;stroke-width:1px;stroke-linecap:butt;stroke-linejoin:miter;stroke-opacity:1"
         d="m 7.1100019,50.152001 27.0450001,26.943001 40.415001,-40.485001 13.406,13.527 13.477007,-13.527 L 74.570003,9.6240002 34.155002,50.152001 l -13.567,-13.542 z"
         id="path4031"
         inkscape:connector-curvature="0" /></clipPath></defs><sodipodi:namedview
     pagecolor="#ffffff"
     bordercolor="#666666"
     borderopacity="1"
     objecttolerance="10"
     gridtolerance="10"
     guidetolerance="10"
     inkscape:pageopacity="1"
     inkscape:pageshadow="2"
     inkscape:window-width="1855"
     inkscape:window-height="1176"
     id="namedview71"
     showgrid="false"
     inkscape:object-nodes="false"
     inkscape:snap-smooth-nodes="false"
     inkscape:object-paths="true"
     inkscape:snap-global="true"
     inkscape:zoom="1"
     inkscape:cx="604.56473"
     inkscape:cy="196.29478"
     inkscape:window-x="65"
     inkscape:window-y="24"
     inkscape:window-maximized="1"
     inkscape:current-layer="layer3"
     inkscape:snap-bbox="true"><inkscape:grid
       type="xygrid"
       id="grid3194"
       empspacing="5"
       visible="true"
       enabled="true"
       snapvisiblegridlinesonly="true" /></sodipodi:namedview><g
     inkscape:groupmode="layer"
     id="layer1"
     inkscape:label="logo"
     style="display:inline"
     transform="translate(0,435.87898)"><g
       id="g4002"
       clip-path="url(#clipPath4029)"
       transform="matrix(2.097896,0,0,2.1003765,183.47577,-292.49662)"><path
         transform="translate(1.7462734e-6,0)"
         id="polygon61"
         d="m 28.905,68.111 18.63,-4.5 0,0.002 L 67.918341,48.277946 48.092403,31.16794 34.155,50.127 l 0,10e-4 z"
         style="fill:#1c3f95;fill-opacity:1"
         inkscape:connector-curvature="0"
         sodipodi:nodetypes="cccccccc" /><path
         transform="translate(1.7462734e-6,0)"
         id="polygon49"
         d="M 47.535,36.61 61.018,50.125 74.57,36.61 l 0,0 3.75,-18.219 -17.302,4.75 0,0 z"
         style="fill:#3a3a3c;fill-opacity:1"
         inkscape:connector-curvature="0"
         sodipodi:nodetypes="cccccccc" /><path
         id="polygon51"
         d="M 74.57,36.61 87.976,53.637 106.703,36.61 87.976,23.141 l 0,0 -17.406,-4.25 z"
         style="fill:#1c3f95;fill-opacity:1"
         transform="translate(1.7462734e-6,0)"
         inkscape:connector-curvature="0"
         sodipodi:nodetypes="ccccccc" /><path
         transform="translate(1.7462734e-6,0)"
         id="polygon63"
         d="m 20.588,63.611 18.317,5.5 -4.75,-18.934 0,-0.025 L 21.338,32.61 2.6100001,50.652 20.588,63.637 z"
         style="fill:#3a3a3c;fill-opacity:1"
         inkscape:connector-curvature="0"
         sodipodi:nodetypes="cccccccc" /><path
         style="fill:#282d87;fill-opacity:1;stroke:none"
         d="m 34.155005,50.152002 -2.500001,18.458999 15.88,-5 z"
         id="path4021"
         inkscape:connector-curvature="0"
         transform="translate(-1.7462734e-6,0)"
         sodipodi:nodetypes="cccc" /><path
         style="fill:#070707;fill-opacity:1;stroke:none"
         d="m 20.588004,63.611001 13.567,4.75 2e-6,-18.208998 z"
         id="path4023"
         inkscape:connector-curvature="0"
         transform="translate(-1.7462734e-6,0)"
         sodipodi:nodetypes="cccc" /><path
         style="fill:#070707;fill-opacity:1;stroke:none"
         d="m 61.018005,23.141 13.552,13.469001 3,-18.719001 z"
         id="path4025"
         inkscape:connector-curvature="0"
         transform="translate(-1.7462734e-6,0)"
         sodipodi:nodetypes="cccc" /><path
         style="fill:#282d87;fill-opacity:1;stroke:none"
         d="m 74.570007,16.891 13.405998,6.25 -13.406,13.469001 z"
         id="path4027"
         inkscape:connector-curvature="0"
         transform="translate(-1.7462734e-6,0)"
         sodipodi:nodetypes="cccc" /><path
         id="polygon55"
         d="M 61.018,23.141 74.32,4.1240001 87.976,23.141 z"
         style="fill:#a7a9ac;fill-opacity:1"
         transform="translate(1.7462734e-6,0)"
         inkscape:connector-curvature="0"
         sodipodi:nodetypes="cccc" /><path
         id="polygon67"
         d="m 47.535,63.611 -26.947,0 13.317,19.734 z"
         style="fill:#a7a9ac;fill-opacity:1"
         transform="translate(1.7462734e-6,0)"
         inkscape:connector-curvature="0"
         sodipodi:nodetypes="cccc" /></g><use
       x="0"
       y="0"
       xlink:href="#g4002"
       id="use3884"
       transform="matrix(3.0336354,0,0,3.0336354,547.86948,445.21989)"
       width="959.99994"
       height="540" /></g><g
     inkscape:groupmode="layer"
     id="layer2"
     inkscape:label="text"><path
       transform="translate(0,435.87898)"
       style="display:inline;fill:#1c3f94"
       inkscape:connector-curvature="0"
       id="path15"
       d="m 367.16451,-158.88291 -10.288,42.11188 h -7.98977 l -10.25267,-42.11188 h 8.05419 l 6.00532,28.83255 c 0.0457,0.82593 0.11428,2.02633 0.20364,3.60121 -0.0208,-0.82384 0.0457,-2.02425 0.20571,-3.60121 l 6.03648,-28.83255 h 8.0251 z" /><path
       transform="translate(0,435.87898)"
       style="display:inline;fill:#1c3f94"
       inkscape:connector-curvature="0"
       id="path17"
       d="m 396.08978,-135.98788 c 0,2.61925 -1.63745,3.92576 -4.90193,3.92576 h -12.99558 v 15.237 h -8.02302 v -42.05779 h 21.0186 c 3.26656,0 4.90193,1.28987 4.90193,3.86751 v 19.02752 z m -8.09368,-1.47917 v -16.01508 h -9.80591 v 16.01508 h 9.80591 z" /><path
       transform="translate(0,435.87898)"
       style="display:inline;fill:#1c3f94"
       inkscape:connector-curvature="0"
       id="path19"
       d="m 428.97354,-116.82512 h -7.95652 l -1.60834,-8.81891 h -10.04487 l -1.61043,8.81891 h -7.9212 v -0.1061 l 10.38982,-42.00785 h 8.43653 l 10.31501,42.11395 z m -10.69943,-14.74187 -3.90658,-17.61699 -3.94189,17.61699 h 7.84847 z" /><path
       transform="translate(0,435.87898)"
       style="display:inline;fill:#1c3f94"
       inkscape:connector-curvature="0"
       id="path21"
       d="m 459.86871,-120.66766 c 0,2.55891 -1.63536,3.84254 -4.90191,3.84254 h -16.73384 c -3.17929,0 -4.76478,-1.28154 -4.76478,-3.84254 v -34.34774 c 0,-2.57764 1.58549,-3.86751 4.76478,-3.86751 h 16.73384 c 3.26655,0 4.90191,1.28987 4.90191,3.86751 v 9.83623 h -7.98977 v -8.30296 h -10.38982 v 31.25623 h 10.38982 v -9.24538 h 7.98977 v 10.80362 z" /><path
       transform="translate(0,435.87898)"
       style="display:inline;fill:#1a1a1a"
       inkscape:connector-curvature="0"
       id="path25"
       d="m 487.35602,-116.82512 h -4.76893 v -42.05779 h 4.76893 v 42.05779 z" /><path
       transform="translate(0,435.87898)"
       style="display:inline;fill:#1a1a1a"
       inkscape:connector-curvature="0"
       id="path27"
       d="m 518.4195,-116.82512 h -3.28734 l -14.3338,-30.92961 v 30.92961 h -4.49256 v -42.05779 h 3.56371 l 14.05951,30.39287 v -30.39287 h 4.49255 v 42.05779 z" /><path
       transform="translate(0,435.87898)"
       style="display:inline;fill:#1a1a1a"
       inkscape:connector-curvature="0"
       id="path29"
       d="m 536.04063,-116.82512 h -3.29149 l -14.3338,-30.92961 v 30.92961 h -3.43279 v -42.05779 h 3.56786 l 12.99974,30.39287 v -30.39287 h 4.49255 v 42.05779 z" /><path
       transform="translate(0,435.87898)"
       style="display:inline;fill:#1a1a1a"
       inkscape:connector-curvature="0"
       id="path31"
       d="m 568.33842,-119.80844 c 0,0.87585 -0.36157,1.5936 -1.08054,2.14699 -0.72314,0.55755 -1.63952,0.83425 -2.75954,0.83425 h -15.02159 c -1.12003,0 -2.03641,-0.27878 -2.74292,-0.83425 -0.71066,-0.55547 -1.06392,-1.27114 -1.06392,-2.14699 v -36.09114 c 0,-0.87794 0.35326,-1.5936 1.06392,-2.14908 0.70651,-0.55755 1.62289,-0.83217 2.74292,-0.83217 h 15.02159 c 1.12002,0 2.0364,0.2767 2.75954,0.83217 0.71897,0.55756 1.08054,1.27114 1.08054,2.14908 v 36.09114 z m -4.76685,-0.32247 v -35.44829 h -13.13274 v 35.44829 h 13.13274 z" /><path
       transform="translate(0,435.87898)"
       style="display:inline;fill:#1a1a1a"
       inkscape:connector-curvature="0"
       id="path33"
       d="m 597.86005,-158.88291 -9.29058,42.16597 h -4.49255 l -9.29473,-42.16597 h 4.72737 l 6.6557,33.48229 0.20366,2.742 c 0.0249,-0.62621 0.10597,-1.53951 0.24311,-2.742 l 6.64741,-33.48229 h 4.60061 z" /><path
       transform="translate(0,435.87898)"
       style="display:inline;fill:#1a1a1a"
       inkscape:connector-curvature="0"
       id="path35"
       d="m 625.94165,-116.82512 h -4.72736 l -1.8868,-9.35149 H 608.6613 l -1.88471,9.35149 h -4.59437 v -0.1061 l 9.56694,-42.06195 h 4.6962 l 9.49629,42.16805 z m -7.23131,-12.65936 -4.70036,-22.79102 -4.73151,22.79102 h 9.43187 z" /><path
       transform="translate(0,435.87898)"
       style="display:inline;fill:#1a1a1a"
       inkscape:connector-curvature="0"
       id="path37"
       d="m 650.86891,-155.5792 h -8.29524 v 38.75408 h -4.76892 v -38.75408 h -8.3638 v -3.30371 h 21.42796 v 3.30371 z" /><path
       transform="translate(0,435.87898)"
       style="display:inline;fill:#1a1a1a"
       inkscape:connector-curvature="0"
       id="path39"
       d="m 661.49769,-116.82512 h -4.76477 v -42.05779 h 4.76477 v 42.05779 z" /><path
       transform="translate(0,435.87898)"
       style="display:inline;fill:#1a1a1a"
       inkscape:connector-curvature="0"
       id="path41"
       d="m 693.11807,-119.80844 c 0,0.87585 -0.36573,1.5936 -1.08262,2.14699 -0.72313,0.55755 -1.64367,0.83425 -2.75954,0.83425 h -15.01745 c -1.12417,0 -2.0364,-0.27878 -2.74291,-0.83425 -0.71066,-0.55547 -1.06807,-1.27114 -1.06807,-2.14699 v -36.09114 c 0,-0.87794 0.35741,-1.5936 1.06807,-2.14908 0.70651,-0.55755 1.61874,-0.83217 2.74291,-0.83217 h 15.01745 c 1.11587,0 2.03641,0.2767 2.75954,0.83217 0.71898,0.55756 1.08262,1.27114 1.08262,2.14908 v 36.09114 z m -4.76893,-0.32247 v -35.44829 h -13.13273 v 35.44829 h 13.13273 z" /><path
       transform="translate(0,435.87898)"
       style="display:inline;fill:#1a1a1a"
       inkscape:connector-curvature="0"
       id="path43"
       d="m 723.80543,-116.82512 h -3.29149 l -14.3338,-30.92961 v 30.92961 h -4.49255 v -42.05779 h 3.56786 l 14.05951,30.39287 v -30.39287 h 4.49255 v 42.05779 z" /><path
       transform="translate(0,435.87898)"
       style="display:inline;fill:#1a1a1a"
       inkscape:connector-curvature="0"
       id="path45"
       d="m 753.28966,-119.80844 c 0,0.87585 -0.34494,1.5936 -1.0473,2.14699 -0.69403,0.55755 -1.6021,0.83425 -2.7242,0.83425 h -13.51092 c -1.12003,0 -2.03641,-0.27878 -2.75538,-0.83425 -0.72729,-0.55547 -1.08263,-1.27114 -1.08263,-2.14699 v -10.6684 h 4.76478 v 10.34593 h 11.59088 v -10.02347 l -14.8138,-14.03036 c -1.02651,-0.96739 -1.54186,-2.03257 -1.54186,-3.19552 v -8.51932 c 0,-0.87794 0.35742,-1.5936 1.08263,-2.14908 0.71897,-0.55755 1.63535,-0.83217 2.75538,-0.83217 h 13.51092 c 1.12002,0 2.03017,0.2767 2.7242,0.83217 0.70236,0.55756 1.0473,1.27114 1.0473,2.14908 v 9.78006 h -4.76477 v -9.45968 h -11.59088 v 8.86883 l 14.88237,14.02828 c 0.98288,0.93411 1.47328,1.98056 1.47328,3.14559 v 9.72806 z" /></g><g
     inkscape:groupmode="layer"
     id="layer3"
     inkscape:label="guillotine (export)"
     style="display:none"><rect
       ry="3"
       rx="3"
       y="0"
       x="-2.4999999e-05"
       height="540"
       width="960"
       id="logo_fullcolour_slide"
       style="opacity:0.5;color:#000000;fill:#fc06ff;fill-opacity:1;fill-rule:nonzero;stroke:none;stroke-width:1.00000012;marker:none;visibility:visible;display:inline;overflow:visible;enable-background:accumulate" /><rect
       style="opacity:0.5;color:#000000;fill:#fc06ff;fill-opacity:1;fill-rule:nonzero;stroke:none;stroke-width:1.00000012;marker:none;visibility:visible;display:inline;overflow:visible;enable-background:accumulate"
       id="logo_fullcolour_hd_notext"
       width="960"
       height="539.99921"
       x="970"
       y="0.00077205471"
       rx="3"
       ry="3" /><rect
       style="opacity:0.5;color:#000000;fill:#fc06ff;fill-opacity:1;fill-rule:nonzero;stroke:none;stroke-width:1.00000012;marker:none;visibility:visible;display:inline;overflow:visible;enable-background:accumulate"
       id="logo_fullcolour"
       width="600"
       height="200"
       x="180"
       y="140"
       transform="translate(-2.5e-5,0)"
       rx="3"
       ry="3" /><text
       xml:space="preserve"
       style="font-size:14px;font-style:normal;font-variant:normal;font-weight:normal;font-stretch:normal;text-indent:0;text-align:start;text-decoration:none;line-height:125%;letter-spacing:0px;word-spacing:0px;text-transform:none;direction:ltr;block-progression:tb;writing-mode:lr-tb;text-anchor:start;baseline-shift:baseline;color:#000000;fill:#000000;fill-opacity:1;fill-rule:nonzero;stroke:none;stroke-width:1px;marker:none;visibility:visible;display:inline;overflow:visible;enable-background:accumulate;font-family:Bitstream Vera Sans;-inkscape-font-specification:Sans"
       x="214.99997"
       y="-96"
       id="text3868"
       sodipodi:linespacing="125%"
       sodipodi:insensitive="true"><tspan
         sodipodi:role="line"
         x="214.99997"
         y="-96"
         id="tspan3872">To export things with correct extents</tspan><tspan
         sodipodi:role="line"
         x="214.99997"
         y="-78.5"
         id="tspan3878">1. Select all objects on this layer</tspan><tspan
         sodipodi:role="line"
         x="214.99997"
         y="-61"
         id="tspan3895">2. Hide this layer</tspan><tspan
         sodipodi:role="line"
         x="214.99997"
         y="-43.5"
         id="tspan3897">3. Export selected objects</tspan></text>
</g></svg>