<?xml version="1.0" encoding="UTF-8" standalone="no"?>
<!-- Generator: Adobe Illustrator 14.0.0, SVG Export Plug-In . SVG Version: 6.00 Build 43363)  -->

<svg
   xmlns:dc="http://purl.org/dc/elements/1.1/"
   xmlns:cc="http://creativecommons.org/ns#"
   xmlns:rdf="http://www.w3.org/1999/02/22-rdf-syntax-ns#"
   xmlns:svg="http://www.w3.org/2000/svg"
   xmlns="http://www.w3.org/2000/svg"
   xmlns:xlink="http://www.w3.org/1999/xlink"
   xmlns:sodipodi="http://sodipodi.sourceforge.net/DTD/sodipodi-0.dtd"
   xmlns:inkscape="http://www.inkscape.org/namespaces/inkscape"
   version="1.1"
   id="Layer_1"
   x="0px"
   y="0px"
   width="1920"
   height="1080"
   viewBox="0 0 1919.9999 1080"
   enable-background="new 0 0 285.691 104.121"
   xml:space="preserve"
   inkscape:version="0.48.4 r9939"
   sodipodi:docname="logo_fullcolour.svg"
   inkscape:export-filename="/home/adfries/Documents/marketing/Logos/vi_Full_colour2_slide_hd.png"
   inkscape:export-xdpi="180"
   inkscape:export-ydpi="180"><metadata
     id="metadata75"><rdf:RDF><cc:Work
         rdf:about=""><dc:format>image/svg+xml</dc:format><dc:type
           rdf:resource="http://purl.org/dc/dcmitype/StillImage" /><dc:title></dc:title></cc:Work></rdf:RDF></metadata><defs
     id="defs73"><clipPath
       clipPathUnits="userSpaceOnUse"
       id="clipPath4029"><path
         style="fill:none;stroke:#000000;stroke-width:1px;stroke-linecap:butt;stroke-linejoin:miter;stroke-opacity:1"
         d="m 7.1100019,50.152001 27.0450001,26.943001 40.415001,-40.485001 13.406,13.527 13.477007,-13.527 L 74.570003,9.6240002 34.155002,50.152001 l -13.567,-13.542 z"
         id="path4031"
         inkscape:connector-curvature="0" /></clipPath></defs><sodipodi:namedview
     pagecolor="#ffffff"
     bordercolor="#666666"
     borderopacity="1"
     objecttolerance="10"
     gridtolerance="10"
     guidetolerance="10"
     inkscape:pageopacity="1"
     inkscape:pageshadow="2"
     inkscape:window-width="1855"
     inkscape:window-height="1176"
     id="namedview71"
     showgrid="true"
     inkscape:object-nodes="false"
     inkscape:snap-smooth-nodes="false"
     inkscape:object-paths="true"
     inkscape:snap-global="true"
     inkscape:zoom="0.5"
     inkscape:cx="1197.582"
     inkscape:cy="768.58299"
     inkscape:window-x="65"
     inkscape:window-y="24"
     inkscape:window-maximized="1"
     inkscape:current-layer="layer3"
     inkscape:snap-bbox="true"><inkscape:grid
       type="xygrid"
       id="grid3194"
       empspacing="5"
       visible="true"
       enabled="true"
       snapvisiblegridlinesonly="true" /></sodipodi:namedview><g
     inkscape:groupmode="layer"
     id="layer1"
     inkscape:label="logo"
     style="display:inline"
     transform="translate(0,975.87898)"><g
       id="g4002"
       clip-path="url(#clipPath4029)"
       transform="matrix(4.195792,0,0,4.200753,366.95156,-689.11426)"><path
         transform="translate(1.7462734e-6,0)"
         id="polygon61"
         d="m 28.905,68.111 18.63,-4.5 0,0.002 L 67.918341,48.277946 48.092403,31.16794 34.155,50.127 l 0,10e-4 z"
         style="fill:#1c3f95;fill-opacity:1"
         inkscape:connector-curvature="0"
         sodipodi:nodetypes="cccccccc" /><path
         transform="translate(1.7462734e-6,0)"
         id="polygon49"
         d="M 47.535,36.61 61.018,50.125 74.57,36.61 l 0,0 3.75,-18.219 -17.302,4.75 0,0 z"
         style="fill:#3a3a3c;fill-opacity:1"
         inkscape:connector-curvature="0"
         sodipodi:nodetypes="cccccccc" /><path
         id="polygon51"
         d="M 74.57,36.61 87.976,53.637 106.703,36.61 87.976,23.141 l 0,0 -17.406,-4.25 z"
         style="fill:#1c3f95;fill-opacity:1"
         transform="translate(1.7462734e-6,0)"
         inkscape:connector-curvature="0"
         sodipodi:nodetypes="ccccccc" /><path
         transform="translate(1.7462734e-6,0)"
         id="polygon63"
         d="m 20.588,63.611 18.317,5.5 -4.75,-18.934 0,-0.025 L 21.338,32.61 2.6100001,50.652 20.588,63.637 z"
         style="fill:#3a3a3c;fill-opacity:1"
         inkscape:connector-curvature="0"
         sodipodi:nodetypes="cccccccc" /><path
         style="fill:#282d87;fill-opacity:1;stroke:none"
         d="m 34.155005,50.152002 -2.500001,18.458999 15.88,-5 z"
         id="path4021"
         inkscape:connector-curvature="0"
         transform="translate(-1.7462734e-6,0)"
         sodipodi:nodetypes="cccc" /><path
         style="fill:#070707;fill-opacity:1;stroke:none"
         d="m 20.588004,63.611001 13.567,4.75 2e-6,-18.208998 z"
         id="path4023"
         inkscape:connector-curvature="0"
         transform="translate(-1.7462734e-6,0)"
         sodipodi:nodetypes="cccc" /><path
         style="fill:#070707;fill-opacity:1;stroke:none"
         d="m 61.018005,23.141 13.552,13.469001 3,-18.719001 z"
         id="path4025"
         inkscape:connector-curvature="0"
         transform="translate(-1.7462734e-6,0)"
         sodipodi:nodetypes="cccc" /><path
         style="fill:#282d87;fill-opacity:1;stroke:none"
         d="m 74.570007,16.891 13.405998,6.25 -13.406,13.469001 z"
         id="path4027"
         inkscape:connector-curvature="0"
         transform="translate(-1.7462734e-6,0)"
         sodipodi:nodetypes="cccc" /><path
         id="polygon55"
         d="M 61.018,23.141 74.32,4.1240001 87.976,23.141 z"
         style="fill:#a7a9ac;fill-opacity:1"
         transform="translate(1.7462734e-6,0)"
         inkscape:connector-curvature="0"
         sodipodi:nodetypes="cccc" /><path
         id="polygon67"
         d="m 47.535,63.611 -26.947,0 13.317,19.734 z"
         style="fill:#a7a9ac;fill-opacity:1"
         transform="translate(1.7462734e-6,0)"
         inkscape:connector-curvature="0"
         sodipodi:nodetypes="cccc" /></g><use
       x="0"
       y="0"
       xlink:href="#g4002"
       id="use3884"
       transform="matrix(3.0336354,0,0,3.0336354,1095.7389,1102.184)"
       width="959.99994"
       height="540" /></g><g
     inkscape:groupmode="layer"
     id="layer2"
     inkscape:label="text"
     transform="translate(0,540)"><path
       style="fill:#1c3f94;display:inline"
       inkscape:connector-curvature="0"
       id="path15"
       d="m 734.32904,13.99214 -20.576,84.22376 H 697.7735 L 677.26816,13.99214 h 16.10838 l 12.01064,57.6651 c 0.0914,1.65186 0.22856,4.05266 0.40728,7.20242 -0.0416,-1.64768 0.0914,-4.0485 0.41142,-7.20242 l 12.07296,-57.6651 h 16.0502 z" /><path
       style="fill:#1c3f94;display:inline"
       inkscape:connector-curvature="0"
       id="path17"
       d="m 792.17958,59.7822 c 0,5.2385 -3.2749,7.85152 -9.80386,7.85152 h -25.99116 v 30.474 H 740.33852 V 13.99214 h 42.0372 c 6.53312,0 9.80386,2.57974 9.80386,7.73502 V 59.7822 z M 775.99222,56.82386 V 24.7937 H 756.3804 v 32.03016 h 19.61182 z" /><path
       style="fill:#1c3f94;display:inline"
       inkscape:connector-curvature="0"
       id="path19"
       d="M 857.9471,98.10772 H 842.03406 L 838.81738,80.4699 h -20.08974 l -3.22086,17.63782 h -15.8424 v -0.2122 l 20.77964,-84.0157 h 16.87306 l 20.63002,84.2279 z M 836.54824,68.62398 828.73508,33.39 820.8513,68.62398 h 15.69694 z" /><path
       style="fill:#1c3f94;display:inline"
       inkscape:connector-curvature="0"
       id="path21"
       d="m 919.73744,90.42264 c 0,5.11782 -3.27072,7.68508 -9.80382,7.68508 h -33.46768 c -6.35858,0 -9.52956,-2.56308 -9.52956,-7.68508 V 21.72716 c 0,-5.15528 3.17098,-7.73502 9.52956,-7.73502 h 33.46768 c 6.5331,0 9.80382,2.57974 9.80382,7.73502 V 41.39962 H 903.7579 V 24.7937 H 882.97826 V 87.30616 H 903.7579 V 68.8154 h 15.97954 v 21.60724 z" /><path
       style="fill:#1a1a1a;display:inline"
       inkscape:connector-curvature="0"
       id="path25"
       d="M 974.71206,98.10772 H 965.1742 V 13.99214 h 9.53786 v 84.11558 z" /><path
       style="fill:#1a1a1a;display:inline"
       inkscape:connector-curvature="0"
       id="path27"
       d="m 1036.839,98.10772 h -6.5747 L 1001.5967,36.2485 v 61.85922 h -8.98508 V 13.99214 h 7.12742 l 28.11906,60.78574 V 13.99214 h 8.9851 v 84.11558 z" /><path
       style="fill:#1a1a1a;display:inline"
       inkscape:connector-curvature="0"
       id="path29"
       d="m 1072.0813,98.10772 h -6.583 L 1036.8307,36.2485 v 61.85922 h -6.8656 V 13.99214 h 7.1357 l 25.9995,60.78574 V 13.99214 h 8.9851 v 84.11558 z" /><path
       style="fill:#1a1a1a;display:inline"
       inkscape:connector-curvature="0"
       id="path31"
       d="m 1136.6769,92.14108 c 0,1.7517 -0.7232,3.1872 -2.1611,4.29398 -1.4463,1.1151 -3.2791,1.6685 -5.5191,1.6685 h -30.0432 c -2.24,0 -4.0728,-0.55756 -5.4858,-1.6685 -1.4213,-1.11094 -2.1279,-2.54228 -2.1279,-4.29398 V 19.9588 c 0,-1.75588 0.7066,-3.1872 2.1279,-4.29816 1.413,-1.1151 3.2458,-1.66434 5.4858,-1.66434 h 30.0432 c 2.24,0 4.0728,0.5534 5.5191,1.66434 1.4379,1.11512 2.1611,2.54228 2.1611,4.29816 v 72.18228 z m -9.5337,-0.64494 V 20.59956 h -26.2655 v 70.89658 h 26.2655 z" /><path
       style="fill:#1a1a1a;display:inline"
       inkscape:connector-curvature="0"
       id="path33"
       d="m 1195.7201,13.99214 -18.5811,84.33194 h -8.9851 l -18.5895,-84.33194 h 9.4547 l 13.3114,66.96458 0.4074,5.484 c 0.05,-1.25242 0.2119,-3.07902 0.4862,-5.484 l 13.2948,-66.96458 h 9.2012 z" /><path
       style="fill:#1a1a1a;display:inline"
       inkscape:connector-curvature="0"
       id="path35"
       d="m 1251.8833,98.10772 h -9.4547 l -3.7736,-18.70298 h -21.3324 l -3.7694,18.70298 h -9.1887 v -0.2122 l 19.1338,-84.1239 h 9.3924 l 18.9926,84.3361 z M 1237.4207,72.789 1228.02,27.20696 1218.557,72.789 h 18.8637 z" /><path
       style="fill:#1a1a1a;display:inline"
       inkscape:connector-curvature="0"
       id="path37"
       d="m 1301.7378,20.59956 h -16.5904 v 77.50816 h -9.5379 V 20.59956 h -16.7276 v -6.60742 h 42.8559 v 6.60742 z" /><path
       style="fill:#1a1a1a;display:inline"
       inkscape:connector-curvature="0"
       id="path39"
       d="m 1322.9954,98.10772 h -9.5295 V 13.99214 h 9.5295 v 84.11558 z" /><path
       style="fill:#1a1a1a;display:inline"
       inkscape:connector-curvature="0"
       id="path41"
       d="m 1386.2362,92.14108 c 0,1.7517 -0.7315,3.1872 -2.1653,4.29398 -1.4462,1.1151 -3.2873,1.6685 -5.5191,1.6685 h -30.0349 c -2.2483,0 -4.0728,-0.55756 -5.4858,-1.6685 -1.4213,-1.11094 -2.1361,-2.54228 -2.1361,-4.29398 V 19.9588 c 0,-1.75588 0.7148,-3.1872 2.1361,-4.29816 1.413,-1.1151 3.2375,-1.66434 5.4858,-1.66434 h 30.0349 c 2.2318,0 4.0729,0.5534 5.5191,1.66434 1.438,1.11512 2.1653,2.54228 2.1653,4.29816 v 72.18228 z m -9.5379,-0.64494 V 20.59956 h -26.2655 v 70.89658 h 26.2655 z" /><path
       style="fill:#1a1a1a;display:inline"
       inkscape:connector-curvature="0"
       id="path43"
       d="m 1447.6109,98.10772 h -6.583 L 1412.3603,36.2485 v 61.85922 h -8.9851 V 13.99214 h 7.1357 l 28.119,60.78574 V 13.99214 h 8.9851 v 84.11558 z" /><path
       style="fill:#1a1a1a;display:inline"
       inkscape:connector-curvature="0"
       id="path45"
       d="m 1506.5793,92.14108 c 0,1.7517 -0.6898,3.1872 -2.0946,4.29398 -1.388,1.1151 -3.2042,1.6685 -5.4484,1.6685 h -27.0218 c -2.2401,0 -4.0728,-0.55756 -5.5108,-1.6685 -1.4545,-1.11094 -2.1652,-2.54228 -2.1652,-4.29398 v -21.3368 h 9.5295 v 20.69186 h 23.1818 V 71.4492 l -29.6276,-28.06072 c -2.053,-1.93478 -3.0837,-4.06514 -3.0837,-6.39104 V 19.9588 c 0,-1.75588 0.7148,-3.1872 2.1652,-4.29816 1.438,-1.1151 3.2707,-1.66434 5.5108,-1.66434 h 27.0218 c 2.2401,0 4.0604,0.5534 5.4484,1.66434 1.4048,1.11512 2.0946,2.54228 2.0946,4.29816 v 19.56012 h -9.5295 V 20.59956 h -23.1818 v 17.73766 l 29.7648,28.05656 c 1.9657,1.86822 2.9465,3.96112 2.9465,6.29118 v 19.45612 z" /></g><g
     inkscape:groupmode="layer"
     id="layer3"
     inkscape:label="guillotine (export)"
     style="display:none"
     transform="translate(0,540)"><rect
       ry="3"
       rx="3"
       y="-540"
       x="-2.4999999e-05"
       height="1080"
       width="1920"
       id="logo_fullcolour_slide"
       style="opacity:0.5;color:#000000;fill:#fc06ff;fill-opacity:1;fill-rule:nonzero;stroke:none;stroke-width:1.00000012;marker:none;visibility:visible;display:inline;overflow:visible;enable-background:accumulate" /><rect
       style="opacity:0.5;color:#000000;fill:#fc06ff;fill-opacity:1;fill-rule:nonzero;stroke:none;stroke-width:1.00000012;marker:none;visibility:visible;display:inline;overflow:visible;enable-background:accumulate"
       id="logo_fullcolour_hd_notext"
       width="1920"
       height="1079.9984"
       x="1940"
       y="-539.99847"
       rx="3"
       ry="3" /><rect
       style="opacity:0.5;color:#000000;fill:#fc06ff;fill-opacity:1;fill-rule:nonzero;stroke:none;stroke-width:1.00000012;marker:none;visibility:visible;display:inline;overflow:visible;enable-background:accumulate"
       id="logo_fullcolour"
       width="1200"
       height="400"
       x="359.99997"
       y="-260"
       rx="3"
       ry="3" /><text
       xml:space="preserve"
       style="font-size:37.41536713px;font-style:normal;font-variant:normal;font-weight:normal;font-stretch:normal;text-indent:0;text-align:start;text-decoration:none;line-height:125%;letter-spacing:0px;word-spacing:0px;text-transform:none;direction:ltr;block-progression:tb;writing-mode:lr-tb;text-anchor:start;baseline-shift:baseline;color:#000000;fill:#000000;fill-opacity:1;fill-rule:nonzero;stroke:none;stroke-width:1px;marker:none;visibility:visible;display:inline;overflow:visible;enable-background:accumulate;font-family:Bitstream Vera Sans;-inkscape-font-specification:Sans"
       x="215.06857"
       y="-726.67822"
       id="text3868"
       sodipodi:linespacing="125%"
       sodipodi:insensitive="true"><tspan
         sodipodi:role="line"
         x="215.06857"
         y="-726.67822"
         id="tspan3872">To export things with correct extents</tspan><tspan
         sodipodi:role="line"
         x="215.06857"
         y="-679.909"
         id="tspan3878">1. Select all objects on this layer</tspan><tspan
         sodipodi:role="line"
         x="215.06857"
         y="-633.13983"
         id="tspan3895">2. Hide this layer</tspan><tspan
         sodipodi:role="line"
         x="215.06857"
         y="-586.37061"
         id="tspan3897">3. Export selected objects</tspan></text>
</g></svg>